<svg width="244" height="40" viewBox="0 0 244 40" fill="none" xmlns="http://www.w3.org/2000/svg">
<path d="M7.74396 39.816C5.53596 39.816 3.80796 39.192 2.55996 37.944C1.34396 36.664 0.735962 34.856 0.735962 32.52V3.38399L8.31996 2.56799V32.232C8.31996 33.288 8.75196 33.816 9.61596 33.816C10.064 33.816 10.48 33.736 10.864 33.576L12.352 38.952C10.976 39.528 9.43996 39.816 7.74396 39.816Z" fill="#171717"/>
<path d="M36.73 39H30.154L29.818 35.784C27.962 38.472 25.386 39.816 22.09 39.816C19.754 39.816 17.978 39.112 16.762 37.704C15.578 36.296 14.986 34.328 14.986 31.8V13.512H22.57V30.84C22.57 32.088 22.762 32.968 23.146 33.48C23.562 33.96 24.186 34.2 25.018 34.2C26.618 34.2 27.994 33.208 29.146 31.224V13.512H36.73V39Z" fill="#171717"/>
<path d="M50.2787 13.512V39H42.6947V13.512H50.2787ZM46.4387 0.071991C47.7507 0.071991 48.8227 0.487991 49.6547 1.31999C50.5187 2.11999 50.9507 3.14399 50.9507 4.39199C50.9507 5.63999 50.5187 6.67999 49.6547 7.51199C48.8227 8.31199 47.7507 8.71199 46.4387 8.71199C45.1267 8.71199 44.0547 8.31199 43.2227 7.51199C42.3907 6.67999 41.9747 5.63999 41.9747 4.39199C41.9747 3.14399 42.3907 2.11999 43.2227 1.31999C44.0547 0.487991 45.1267 0.071991 46.4387 0.071991Z" fill="#171717"/>
<path d="M74.1936 13.512V18.84L62.6736 33.24H74.4336L73.7616 39H53.8896V33.624L65.4576 19.224H54.8976V13.512H74.1936Z" fill="#171717"/>
<path d="M88.891 12.696C90.651 12.696 92.235 12.952 93.643 13.464C95.051 13.976 96.379 14.76 97.627 15.816L94.363 20.328C92.763 19.112 91.147 18.504 89.515 18.504C87.819 18.504 86.539 19.128 85.675 20.376C84.811 21.624 84.379 23.64 84.379 26.424C84.379 29.112 84.811 31.016 85.675 32.136C86.539 33.256 87.787 33.816 89.419 33.816C90.283 33.816 91.067 33.688 91.771 33.432C92.475 33.144 93.323 32.696 94.315 32.088L97.627 36.792C95.099 38.808 92.235 39.816 89.035 39.816C86.443 39.816 84.203 39.272 82.315 38.184C80.427 37.064 78.971 35.512 77.947 33.528C76.923 31.512 76.411 29.16 76.411 26.472C76.411 23.784 76.923 21.4 77.947 19.32C78.971 17.24 80.427 15.624 82.315 14.472C84.203 13.288 86.395 12.696 88.891 12.696Z" fill="#171717"/>
<path d="M110.922 12.696C114.826 12.696 117.882 13.896 120.09 16.296C122.298 18.664 123.402 21.992 123.402 26.28C123.402 29 122.89 31.384 121.866 33.432C120.874 35.448 119.434 37.016 117.546 38.136C115.69 39.256 113.482 39.816 110.922 39.816C107.05 39.816 103.994 38.632 101.754 36.264C99.5462 33.864 98.4422 30.52 98.4422 26.232C98.4422 23.512 98.9382 21.144 99.9302 19.128C100.954 17.08 102.394 15.496 104.25 14.376C106.138 13.256 108.362 12.696 110.922 12.696ZM110.922 18.264C109.386 18.264 108.234 18.92 107.466 20.232C106.698 21.512 106.314 23.512 106.314 26.232C106.314 29.016 106.682 31.048 107.418 32.328C108.186 33.608 109.354 34.248 110.922 34.248C112.458 34.248 113.61 33.608 114.378 32.328C115.146 31.016 115.53 29 115.53 26.28C115.53 23.496 115.146 21.464 114.378 20.184C113.642 18.904 112.49 18.264 110.922 18.264Z" fill="#171717"/>
<path d="M134.681 39.816C132.473 39.816 130.745 39.192 129.497 37.944C128.281 36.664 127.673 34.856 127.673 32.52V3.38399L135.257 2.56799V32.232C135.257 33.288 135.689 33.816 136.553 33.816C137.001 33.816 137.417 33.736 137.801 33.576L139.289 38.952C137.913 39.528 136.377 39.816 134.681 39.816Z" fill="#171717"/>
<path d="M170.339 12.696C172.355 12.696 173.971 13.384 175.187 14.76C176.403 16.104 177.011 17.976 177.011 20.376V39H169.427V21.672C169.427 19.4 168.707 18.264 167.267 18.264C166.467 18.264 165.763 18.536 165.155 19.08C164.547 19.624 163.955 20.456 163.379 21.576V39H155.795V21.672C155.795 19.4 155.075 18.264 153.635 18.264C152.867 18.264 152.163 18.552 151.523 19.128C150.915 19.672 150.323 20.488 149.747 21.576V39H142.163V13.512H148.787L149.315 16.488C150.307 15.208 151.395 14.264 152.579 13.656C153.795 13.016 155.171 12.696 156.707 12.696C158.147 12.696 159.379 13.048 160.403 13.752C161.459 14.456 162.227 15.448 162.707 16.728C163.731 15.352 164.851 14.344 166.067 13.704C167.315 13.032 168.739 12.696 170.339 12.696Z" fill="#171717"/>
<path d="M202.966 31.608C202.966 32.568 203.094 33.272 203.35 33.72C203.638 34.168 204.086 34.504 204.694 34.728L203.11 39.672C201.542 39.544 200.262 39.208 199.27 38.664C198.278 38.088 197.51 37.192 196.966 35.976C195.302 38.536 192.742 39.816 189.286 39.816C186.758 39.816 184.742 39.08 183.238 37.608C181.734 36.136 180.982 34.216 180.982 31.848C180.982 29.064 182.006 26.936 184.054 25.464C186.102 23.992 189.062 23.256 192.934 23.256H195.526V22.152C195.526 20.648 195.206 19.624 194.566 19.08C193.926 18.504 192.806 18.216 191.206 18.216C190.374 18.216 189.366 18.344 188.182 18.6C186.998 18.824 185.782 19.144 184.534 19.56L182.806 14.568C184.406 13.96 186.038 13.496 187.702 13.176C189.398 12.856 190.966 12.696 192.406 12.696C196.054 12.696 198.726 13.448 200.422 14.952C202.118 16.456 202.966 18.712 202.966 21.72V31.608ZM191.494 34.392C193.222 34.392 194.566 33.576 195.526 31.944V27.432H193.654C191.926 27.432 190.63 27.736 189.766 28.344C188.934 28.952 188.518 29.896 188.518 31.176C188.518 32.2 188.774 33 189.286 33.576C189.83 34.12 190.566 34.392 191.494 34.392Z" fill="#171717"/>
<path d="M223.935 12.696C226.143 12.696 227.871 13.368 229.119 14.712C230.367 16.056 230.991 17.944 230.991 20.376V39H223.407V21.672C223.407 20.392 223.199 19.512 222.783 19.032C222.399 18.52 221.807 18.264 221.007 18.264C219.471 18.264 217.999 19.368 216.591 21.576V39H209.007V13.512H215.631L216.159 16.536C217.247 15.256 218.415 14.296 219.663 13.656C220.943 13.016 222.367 12.696 223.935 12.696Z" fill="#171717"/>
<path d="M239.494 31.128C240.678 31.128 241.686 31.56 242.518 32.424C243.382 33.256 243.814 34.264 243.814 35.448C243.814 36.664 243.382 37.704 242.518 38.568C241.686 39.4 240.678 39.816 239.494 39.816C238.278 39.816 237.238 39.4 236.374 38.568C235.542 37.704 235.126 36.664 235.126 35.448C235.126 34.264 235.542 33.256 236.374 32.424C237.238 31.56 238.278 31.128 239.494 31.128Z" fill="#171717"/>
</svg>
