<svg width="24" height="24" viewBox="0 0 24 24" fill="none" xmlns="http://www.w3.org/2000/svg">
<path d="M21 10H13C11.343 10 10 11.343 10 13V21C10 22.657 11.343 24 13 24H21C22.657 24 24 22.657 24 21V13C24 11.343 22.657 10 21 10ZM19.135 21L18.475 19.154H15.475L14.812 21H13.152L16.193 13H17.795L20.848 21H19.135ZM16.982 14.863L18.033 17.881H15.93L16.982 14.863ZM5.145 7.886C5.183 8.467 5.249 9.002 5.339 9.479C4.115 9.703 4.065 8.495 5.145 7.886ZM14 3V8H13C12.257 8 11.558 8.173 10.924 8.465C10.728 7.659 10.141 6.935 9.245 6.501C9.322 6.203 9.368 5.979 9.412 5.757L8.062 5.495C8.039 5.608 7.999 5.823 7.926 6.109C7.47 6.043 6.986 6.034 6.495 6.084C6.506 5.755 6.527 5.431 6.555 5.121H8.062V3.842H6.736C6.801 3.516 6.857 3.321 6.912 3.137L5.595 2.741C5.498 3.064 5.417 3.381 5.336 3.842H3.832V5.12H5.173C5.137 5.534 5.116 5.962 5.109 6.395C3.629 6.939 3 7.976 3 8.916C3 10.026 3.876 11.002 5.261 10.876C6.981 10.72 8.13 9.42 8.803 7.823C9.688 8.359 9.641 8.984 9.576 9.375C8.61 10.288 8 11.571 8 13V14H3C1.343 14 0 12.657 0 11V3C0 1.343 1.343 0 3 0H11C12.657 0 14 1.343 14 3ZM6.5 7.467C6.827 7.425 7.158 7.417 7.469 7.441C7.255 7.917 6.973 8.389 6.614 8.76C6.559 8.364 6.521 7.93 6.5 7.467Z" fill="url(#paint0_linear_24_202)"/>
<defs>
<linearGradient id="paint0_linear_24_202" x1="12" y1="0" x2="12" y2="24" gradientUnits="userSpaceOnUse">
<stop stop-color="#E81717"/>
<stop offset="1" stop-color="#EE16A4"/>
</linearGradient>
</defs>
</svg>
