<svg width="20" height="24" viewBox="0 0 20 24" fill="none" xmlns="http://www.w3.org/2000/svg">
<path d="M20 13H18V9H20V13ZM20 8H18V4H20V8ZM20 14H18V18H20V14ZM20 19H18V23H20V19ZM9.232 13.114C8.994 13.561 8.84 14.139 8.84 14.589C8.84 15.792 10.013 15.8 10.591 14.669C10.828 14.204 10.982 13.611 10.982 13.159C10.982 12.187 9.816 12.015 9.232 13.114ZM3.495 4H17V24H3C1.344 24 0 22.657 0 21V3C0 1.343 1.344 0 3 0H20V2H3.495C2.119 2 2.119 4 3.495 4ZM6 14.159C6 16.257 7.409 17.883 10.014 17.883C11.454 17.883 12.37 17.468 12.941 17.147L12.549 16.581C11.964 16.919 11.263 17.229 10.116 17.229C8.158 17.229 6.841 15.973 6.841 14.102C6.841 10.837 10.498 10.241 12.106 11.204C13.605 12.142 13.549 14.391 12.439 15.251C11.847 15.723 11.182 15.707 11.397 14.818C11.397 14.818 12.09 12.254 12.171 11.976H11.393L11.237 12.519C11.079 12.071 10.698 11.779 10.146 11.779C8.993 11.779 8.018 13.03 8.018 14.512C8.018 15.501 8.541 16.114 9.378 16.114C10.111 16.114 10.493 15.699 10.729 15.329C10.557 16.988 14 16.222 14 13.317C14 11.463 12.497 10.117 10.425 10.117C7.588 10.117 6 11.917 6 14.159Z" fill="url(#paint0_linear_24_190)"/>
<defs>
<linearGradient id="paint0_linear_24_190" x1="10" y1="0" x2="10" y2="24" gradientUnits="userSpaceOnUse">
<stop stop-color="#E81717"/>
<stop offset="1" stop-color="#EE16A4"/>
</linearGradient>
</defs>
</svg>
